<svg width="21" height="20" viewBox="0 0 21 20" fill="none" xmlns="http://www.w3.org/2000/svg">
<g id="mdi:github">
<path id="Vector" d="M10.5001 1.6665C9.40573 1.6665 8.3221 1.88205 7.31105 2.30084C6.30001 2.71963 5.38135 3.33346 4.60752 4.10728C3.04472 5.67008 2.16675 7.7897 2.16675 9.99984C2.16675 13.6832 4.55841 16.8082 7.86675 17.9165C8.28341 17.9832 8.41675 17.7248 8.41675 17.4998V16.0915C6.10841 16.5915 5.61675 14.9748 5.61675 14.9748C5.23341 14.0082 4.69175 13.7498 4.69175 13.7498C3.93341 13.2332 4.75008 13.2498 4.75008 13.2498C5.58341 13.3082 6.02508 14.1082 6.02508 14.1082C6.75008 15.3748 7.97508 14.9998 8.45008 14.7998C8.52508 14.2582 8.74175 13.8915 8.97508 13.6832C7.12508 13.4748 5.18341 12.7582 5.18341 9.58317C5.18341 8.65817 5.50008 7.9165 6.04175 7.32484C5.95841 7.1165 5.66675 6.24984 6.12508 5.12484C6.12508 5.12484 6.82508 4.89984 8.41675 5.97484C9.07508 5.7915 9.79175 5.69984 10.5001 5.69984C11.2084 5.69984 11.9251 5.7915 12.5834 5.97484C14.1751 4.89984 14.8751 5.12484 14.8751 5.12484C15.3334 6.24984 15.0417 7.1165 14.9584 7.32484C15.5001 7.9165 15.8167 8.65817 15.8167 9.58317C15.8167 12.7665 13.8667 13.4665 12.0084 13.6748C12.3084 13.9332 12.5834 14.4415 12.5834 15.2165V17.4998C12.5834 17.7248 12.7167 17.9915 13.1417 17.9165C16.4501 16.7998 18.8334 13.6832 18.8334 9.99984C18.8334 8.90549 18.6179 7.82186 18.1991 6.81081C17.7803 5.79976 17.1665 4.8811 16.3926 4.10728C15.6188 3.33346 14.7002 2.71963 13.6891 2.30084C12.6781 1.88205 11.5944 1.6665 10.5001 1.6665Z" fill="#8C8C8C"/>
</g>
</svg>
